<svg xmlns="http://www.w3.org/2000/svg" width="25" height="25" viewBox="0 0 25 25"><g><g><g/><g><path fill="#fff" d="M3.662 25A3.666 3.666 0 0 1 0 21.338V3.662A3.666 3.666 0 0 1 3.662 0h17.676A3.666 3.666 0 0 1 25 3.662v17.676A3.666 3.666 0 0 1 21.338 25zm-2.197-3.662a2.2 2.2 0 0 0 2.197 2.197h17.676a2.2 2.2 0 0 0 2.197-2.197V3.662a2.2 2.2 0 0 0-2.197-2.197H3.662a2.2 2.2 0 0 0-2.197 2.197z"/></g><g><path fill="#fff" d="M5.91 12.502a6.6 6.6 0 0 1 6.592-6.592 6.6 6.6 0 0 1 6.592 6.592 6.6 6.6 0 0 1-6.592 6.592 6.6 6.6 0 0 1-6.592-6.592zm1.465 0c0 2.827 2.3 5.127 5.127 5.127s5.127-2.3 5.127-5.127-2.3-5.127-5.127-5.127a5.133 5.133 0 0 0-5.127 5.127z"/></g><g><path fill="#fff" d="M17.63 5.177a2.2 2.2 0 0 1 2.197-2.197 2.2 2.2 0 0 1 2.198 2.197 2.2 2.2 0 0 1-2.198 2.198 2.2 2.2 0 0 1-2.197-2.198zm1.465 0a.733.733 0 0 0 1.465 0 .733.733 0 0 0-1.465 0z"/></g></g></g></svg>