<svg width="209" height="28" viewBox="0 0 209 28" fill="none" xmlns="http://www.w3.org/2000/svg">
<path d="M14.085 15.837H3.345V27.14H-0.0299988V1.546H15.825V4.324H3.345V13.078H14.085V15.837ZM30.503 27.14C30.316 26.765 30.163 26.097 30.046 25.136C28.534 26.706 26.73 27.492 24.632 27.492C22.757 27.492 21.216 26.964 20.009 25.909C18.814 24.843 18.216 23.495 18.216 21.867C18.216 19.887 18.966 18.351 20.466 17.261C21.978 16.159 24.099 15.609 26.829 15.609H29.993V14.115C29.993 12.978 29.653 12.075 28.973 11.408C28.294 10.728 27.293 10.388 25.968 10.388C24.808 10.388 23.835 10.681 23.05 11.267C22.265 11.853 21.872 12.562 21.872 13.394H18.602C18.602 12.444 18.937 11.531 19.605 10.652C20.285 9.762 21.198 9.058 22.347 8.542C23.507 8.027 24.779 7.769 26.161 7.769C28.353 7.769 30.07 8.319 31.311 9.421C32.554 10.511 33.198 12.017 33.245 13.939V22.693C33.245 24.439 33.468 25.827 33.913 26.859V27.14H30.503ZM25.107 24.661C26.127 24.661 27.093 24.398 28.007 23.871C28.921 23.343 29.583 22.658 29.993 21.814V17.912H27.445C23.46 17.912 21.468 19.078 21.468 21.41C21.468 22.43 21.808 23.226 22.488 23.8C23.168 24.374 24.04 24.661 25.107 24.661V24.661ZM49.417 22.095C49.417 21.216 49.083 20.536 48.415 20.056C47.759 19.564 46.605 19.142 44.952 18.79C43.312 18.439 42.005 18.017 41.032 17.525C40.072 17.033 39.357 16.447 38.888 15.767C38.431 15.087 38.202 14.279 38.202 13.341C38.202 11.783 38.859 10.464 40.172 9.386C41.495 8.308 43.182 7.769 45.234 7.769C47.39 7.769 49.136 8.326 50.472 9.439C51.82 10.552 52.493 11.976 52.493 13.71H49.223C49.223 12.82 48.843 12.052 48.081 11.408C47.331 10.763 46.382 10.441 45.234 10.441C44.05 10.441 43.124 10.699 42.456 11.214C41.788 11.73 41.454 12.404 41.454 13.236C41.454 14.021 41.764 14.613 42.386 15.011C43.007 15.409 44.126 15.791 45.743 16.154C47.373 16.517 48.691 16.951 49.698 17.454C50.706 17.958 51.451 18.568 51.931 19.283C52.423 19.986 52.669 20.847 52.669 21.867C52.669 23.566 51.989 24.931 50.63 25.962C49.27 26.982 47.507 27.492 45.34 27.492C43.816 27.492 42.468 27.222 41.296 26.683C40.124 26.143 39.204 25.393 38.536 24.433C37.88 23.46 37.552 22.411 37.552 21.286H40.804C40.863 22.376 41.296 23.243 42.104 23.888C42.925 24.521 44.004 24.838 45.339 24.838C46.569 24.838 47.554 24.591 48.292 24.099C49.042 23.595 49.417 22.927 49.417 22.095V22.095ZM60.157 10.423C61.599 8.653 63.474 7.769 65.783 7.769C69.802 7.769 71.829 10.036 71.864 14.572V27.14H68.613V14.554C68.601 13.183 68.284 12.169 67.663 11.514C67.054 10.857 66.099 10.529 64.798 10.529C63.743 10.529 62.818 10.809 62.021 11.372C61.2203 11.9386 60.5785 12.7013 60.157 13.587V27.14H56.905V0.139999H60.157V10.423ZM80.267 27.14H77.015V8.12H80.267V27.14ZM76.75 3.076C76.75 2.548 76.908 2.103 77.225 1.74C77.553 1.376 78.033 1.195 78.666 1.195C79.299 1.195 79.779 1.376 80.108 1.74C80.436 2.103 80.6 2.548 80.6 3.076C80.6 3.603 80.436 4.042 80.108 4.394C79.78 4.746 79.299 4.921 78.666 4.921C78.033 4.921 77.553 4.746 77.225 4.394C76.908 4.042 76.75 3.603 76.75 3.076ZM84.625 17.454C84.625 15.591 84.988 13.915 85.715 12.427C86.453 10.939 87.473 9.79 88.773 8.982C90.086 8.173 91.58 7.769 93.256 7.769C95.846 7.769 97.937 8.665 99.531 10.459C101.137 12.251 101.939 14.636 101.939 17.613V17.841C101.939 19.693 101.582 21.357 100.867 22.833C100.164 24.298 99.15 25.441 97.827 26.261C96.514 27.081 95.002 27.491 93.291 27.491C90.713 27.491 88.621 26.595 87.016 24.802C85.422 23.009 84.626 20.636 84.626 17.683L84.625 17.454ZM87.895 17.841C87.895 19.951 88.381 21.644 89.353 22.921C90.338 24.199 91.65 24.837 93.291 24.837C94.943 24.837 96.256 24.193 97.228 22.904C98.201 21.603 98.688 19.787 98.688 17.454C98.688 15.369 98.189 13.681 97.193 12.392C96.209 11.092 94.896 10.441 93.256 10.441C91.65 10.441 90.356 11.08 89.371 12.357C88.387 13.634 87.894 15.462 87.894 17.841H87.895ZM109.094 8.121L109.199 10.511C110.652 8.683 112.551 7.769 114.894 7.769C118.914 7.769 120.941 10.036 120.977 14.572V27.14H117.725V14.554C117.713 13.183 117.396 12.169 116.775 11.514C116.166 10.857 115.211 10.529 113.91 10.529C112.855 10.529 111.93 10.809 111.133 11.372C110.333 11.9388 109.691 12.7014 109.269 13.587V27.14H106.018V8.12L109.094 8.121ZM145.217 19.019C144.9 21.726 143.898 23.818 142.211 25.294C140.535 26.759 138.303 27.492 135.514 27.492C132.49 27.492 130.064 26.408 128.236 24.24C126.42 22.072 125.512 19.171 125.512 15.539V13.077C125.512 10.699 125.934 8.607 126.777 6.802C127.633 4.997 128.84 3.615 130.398 2.654C131.957 1.681 133.762 1.194 135.812 1.194C138.531 1.194 140.711 1.956 142.352 3.48C143.992 4.992 144.947 7.09 145.217 9.773H141.824C141.531 7.733 140.893 6.257 139.908 5.343C138.936 4.429 137.57 3.972 135.812 3.972C133.656 3.972 131.963 4.769 130.732 6.362C129.514 7.956 128.904 10.224 128.904 13.165V15.644C128.904 18.421 129.484 20.63 130.644 22.271C131.805 23.911 133.428 24.731 135.514 24.731C137.389 24.731 138.824 24.31 139.82 23.466C140.828 22.611 141.496 21.128 141.824 19.019H145.217ZM153.232 24.38H165.361V27.14H149.84V1.546H153.232V24.38ZM186.28 1.546V18.95C186.269 21.364 185.507 23.338 183.995 24.873C182.495 26.409 180.456 27.27 177.878 27.457L176.981 27.493C174.181 27.493 171.948 26.737 170.284 25.225C168.62 23.713 167.776 21.633 167.753 18.985V1.546H171.093V18.878C171.093 20.73 171.603 22.171 172.622 23.202C173.642 24.222 175.095 24.732 176.981 24.732C178.892 24.732 180.351 24.222 181.358 23.202C182.378 22.183 182.888 20.747 182.888 18.896V1.546H186.28ZM191.606 27.14V1.546H199.974C202.751 1.546 204.837 2.121 206.231 3.269C207.638 4.417 208.341 6.117 208.341 8.367C208.341 9.562 208.001 10.622 207.321 11.548C206.642 12.462 205.716 13.171 204.544 13.675C205.927 14.062 207.017 14.8 207.813 15.89C208.622 16.968 209.026 18.257 209.026 19.757C209.026 22.054 208.282 23.859 206.794 25.171C205.306 26.484 203.202 27.14 200.483 27.14H191.606ZM194.981 15.17V24.38H200.554C202.124 24.38 203.36 23.976 204.263 23.167C205.177 22.347 205.634 21.222 205.634 19.792C205.634 16.71 203.958 15.169 200.606 15.169L194.981 15.17ZM194.981 12.462H200.079C201.556 12.462 202.733 12.093 203.612 11.355C204.503 10.617 204.948 9.615 204.948 8.349C204.948 6.943 204.538 5.923 203.718 5.29C202.897 4.646 201.649 4.324 199.974 4.324H194.981V12.462Z" fill="white"/>
</svg>
