<svg xmlns="http://www.w3.org/2000/svg" width="209" height="28" viewBox="0 0 209 28"><g><g><path d="M14.085 15.837H3.345V27.14H-.03V1.546h15.855v2.778H3.345v8.754h10.74zM30.503 27.14c-.187-.375-.34-1.043-.457-2.004-1.512 1.57-3.316 2.356-5.414 2.356-1.875 0-3.416-.528-4.623-1.583-1.195-1.066-1.793-2.414-1.793-4.042 0-1.98.75-3.516 2.25-4.606 1.512-1.102 3.633-1.652 6.363-1.652h3.164v-1.494c0-1.137-.34-2.04-1.02-2.707-.679-.68-1.68-1.02-3.005-1.02-1.16 0-2.133.293-2.918.879-.785.586-1.178 1.295-1.178 2.127h-3.27c0-.95.335-1.863 1.003-2.742.68-.89 1.593-1.594 2.742-2.11 1.16-.515 2.432-.773 3.814-.773 2.192 0 3.909.55 5.15 1.652 1.243 1.09 1.887 2.596 1.934 4.518v8.754c0 1.746.223 3.134.668 4.166v.281zm-5.396-2.479c1.02 0 1.986-.263 2.9-.79.914-.528 1.576-1.213 1.986-2.057v-3.902h-2.548c-3.985 0-5.977 1.166-5.977 3.498 0 1.02.34 1.816 1.02 2.39.68.574 1.552.861 2.619.861zm24.31-2.566c0-.879-.334-1.559-1.002-2.039-.656-.492-1.81-.914-3.463-1.266-1.64-.351-2.947-.773-3.92-1.265-.96-.492-1.675-1.078-2.144-1.758-.457-.68-.686-1.488-.686-2.426 0-1.558.657-2.877 1.97-3.955 1.323-1.078 3.01-1.617 5.062-1.617 2.156 0 3.902.557 5.238 1.67 1.348 1.113 2.021 2.537 2.021 4.271h-3.27c0-.89-.38-1.658-1.142-2.302-.75-.645-1.699-.967-2.847-.967-1.184 0-2.11.258-2.778.773-.668.516-1.002 1.19-1.002 2.022 0 .785.31 1.377.932 1.775.621.398 1.74.78 3.357 1.143 1.63.363 2.948.797 3.955 1.3 1.008.504 1.753 1.114 2.233 1.829.492.703.738 1.564.738 2.584 0 1.699-.68 3.064-2.039 4.095-1.36 1.02-3.123 1.53-5.29 1.53-1.524 0-2.872-.27-4.044-.809-1.172-.54-2.092-1.29-2.76-2.25-.656-.973-.984-2.022-.984-3.147h3.252c.059 1.09.492 1.957 1.3 2.602.821.633 1.9.95 3.235.95 1.23 0 2.215-.247 2.953-.739.75-.504 1.125-1.172 1.125-2.004zm10.74-11.672c1.442-1.77 3.317-2.654 5.626-2.654 4.019 0 6.046 2.267 6.081 6.803V27.14h-3.251V14.554c-.012-1.371-.329-2.385-.95-3.04-.609-.657-1.564-.985-2.865-.985-1.055 0-1.98.28-2.777.843a5.73 5.73 0 0 0-1.864 2.215V27.14h-3.252v-27h3.252zm20.11 16.717h-3.252V8.12h3.252zM76.75 3.076c0-.528.158-.973.475-1.336.328-.364.808-.545 1.441-.545s1.113.181 1.442.545c.328.363.492.808.492 1.336 0 .527-.164.966-.492 1.318-.328.352-.809.527-1.442.527-.633 0-1.113-.175-1.441-.527-.317-.352-.475-.791-.475-1.318zm7.875 14.378c0-1.863.363-3.539 1.09-5.027.738-1.488 1.758-2.637 3.058-3.445 1.313-.809 2.807-1.213 4.483-1.213 2.59 0 4.681.896 6.275 2.69 1.606 1.792 2.408 4.177 2.408 7.154v.228c0 1.852-.357 3.516-1.072 4.992-.703 1.465-1.717 2.608-3.04 3.428-1.313.82-2.825 1.23-4.536 1.23-2.578 0-4.67-.896-6.275-2.689-1.594-1.793-2.39-4.166-2.39-7.119zm3.27.387c0 2.11.486 3.803 1.458 5.08.985 1.278 2.297 1.916 3.938 1.916 1.652 0 2.965-.644 3.937-1.933.973-1.301 1.46-3.117 1.46-5.45 0-2.085-.499-3.773-1.495-5.062-.984-1.3-2.297-1.951-3.937-1.951-1.606 0-2.9.639-3.885 1.916-.984 1.277-1.477 3.105-1.477 5.484zm21.199-9.72l.105 2.39c1.453-1.828 3.352-2.742 5.695-2.742 4.02 0 6.047 2.267 6.083 6.803V27.14h-3.252V14.554c-.012-1.371-.329-2.385-.95-3.04-.609-.657-1.564-.985-2.865-.985-1.055 0-1.98.28-2.777.843a5.736 5.736 0 0 0-1.864 2.215V27.14h-3.251V8.12zm36.123 10.898c-.317 2.707-1.319 4.799-3.006 6.275-1.676 1.465-3.908 2.198-6.697 2.198-3.024 0-5.45-1.084-7.278-3.252-1.816-2.168-2.724-5.069-2.724-8.701v-2.462c0-2.378.422-4.47 1.265-6.275.856-1.805 2.063-3.187 3.621-4.148 1.559-.973 3.364-1.46 5.414-1.46 2.719 0 4.899.762 6.54 2.286 1.64 1.512 2.595 3.61 2.865 6.293h-3.393c-.293-2.04-.931-3.516-1.916-4.43-.972-.914-2.338-1.371-4.096-1.371-2.156 0-3.849.797-5.08 2.39-1.218 1.594-1.828 3.862-1.828 6.803v2.479c0 2.777.58 4.986 1.74 6.627 1.161 1.64 2.784 2.46 4.87 2.46 1.875 0 3.31-.421 4.306-1.265 1.008-.855 1.676-2.338 2.004-4.447zm8.015 5.361h12.129v2.76h-15.521V1.546h3.392zM186.28 1.546V18.95c-.011 2.414-.773 4.388-2.285 5.923-1.5 1.536-3.539 2.397-6.117 2.584l-.897.036c-2.8 0-5.033-.756-6.697-2.268-1.664-1.512-2.508-3.592-2.531-6.24V1.546h3.34v17.332c0 1.852.51 3.293 1.529 4.324 1.02 1.02 2.473 1.53 4.359 1.53 1.911 0 3.37-.51 4.377-1.53 1.02-1.019 1.53-2.455 1.53-4.306V1.546zm5.326 25.594V1.546h8.368c2.777 0 4.863.575 6.257 1.723 1.407 1.148 2.11 2.848 2.11 5.098 0 1.195-.34 2.255-1.02 3.181-.679.914-1.605 1.623-2.777 2.127 1.383.387 2.473 1.125 3.269 2.215.809 1.078 1.213 2.367 1.213 3.867 0 2.297-.744 4.102-2.232 5.414-1.488 1.313-3.592 1.969-6.311 1.969zm3.375-11.97v9.21h5.573c1.57 0 2.806-.404 3.709-1.213.914-.82 1.371-1.945 1.371-3.375 0-3.082-1.676-4.623-5.028-4.623zm0-2.708h5.098c1.477 0 2.654-.369 3.533-1.107.891-.738 1.336-1.74 1.336-3.006 0-1.406-.41-2.426-1.23-3.059-.821-.644-2.069-.966-3.744-.966h-4.993z"/></g></g></svg>